# xmcd CD database file
#
# Track frame offsets:
#	150
#	7329
#	24600
#	42931
#	60114
#	77470
#	95648
#	113571
#	131193
#
# Disc length: 1988 seconds
#
# Revision: 0
# Processed by: cddbd v1.5.2PL0 Copyright (c) Steve Scherf et al.
# Submitted via: cdripper 1,0,39,0213
#
DISCID=6b07c209
DTITLE=Connie Dutton - Square Dances
DYEAR=1900
DGENRE=Country
TTITLE0=The Star Spangled Banner
TTITLE1=Cowboys Sweetheart
TTITLE2=Blue
TTITLE3=Anytime
TTITLE4=Time To Get Better
TTITLE5=Lonesome Road Blues
TTITLE6=You'll Be In My Heart
TTITLE7=Chick A Boom
TTITLE8=I Fall To Pieces
EXTD=
EXTT0=
EXTT1=
EXTT2=
EXTT3=
EXTT4=
EXTT5=
EXTT6=
EXTT7=
EXTT8=
PLAYORDER=
